<mxfile host="app.diagrams.net" modified="2024-05-21T00:06:22.507Z" agent="Mozilla/5.0 (Windows NT 10.0; Win64; x64) AppleWebKit/537.36 (KHTML, like Gecko) Chrome/123.0.0.0 Safari/537.36 OPR/109.0.0.0 (Edition std-1)" etag="01nUxvgg14H0E5ewMS-y" version="24.4.4" type="device">
  <diagram name="Page-1" id="vlMoOn-6RSm7Gc2Z-TM3">
    <mxGraphModel dx="2433" dy="766" grid="0" gridSize="10" guides="1" tooltips="1" connect="1" arrows="1" fold="1" page="0" pageScale="1" pageWidth="850" pageHeight="1100" math="0" shadow="0">
      <root>
        <mxCell id="0" />
        <mxCell id="1" parent="0" />
        <mxCell id="TdLjCQkxOGRTl37V7jdG-11" value="" style="rounded=0;whiteSpace=wrap;html=1;" vertex="1" parent="1">
          <mxGeometry x="295" y="431" width="192" height="125" as="geometry" />
        </mxCell>
        <mxCell id="TdLjCQkxOGRTl37V7jdG-10" value="" style="rounded=0;whiteSpace=wrap;html=1;" vertex="1" parent="1">
          <mxGeometry x="-223" y="431" width="192" height="204" as="geometry" />
        </mxCell>
        <mxCell id="TdLjCQkxOGRTl37V7jdG-1" value="" style="verticalLabelPosition=bottom;html=1;verticalAlign=top;align=center;strokeColor=none;fillColor=#00BEF2;shape=mxgraph.azure.laptop;pointerEvents=1;" vertex="1" parent="1">
          <mxGeometry x="-415" y="733" width="125" height="75" as="geometry" />
        </mxCell>
        <mxCell id="TdLjCQkxOGRTl37V7jdG-2" value="" style="outlineConnect=0;dashed=0;verticalLabelPosition=bottom;verticalAlign=top;align=center;html=1;shape=mxgraph.aws3.router;fillColor=#F58534;gradientColor=none;" vertex="1" parent="1">
          <mxGeometry x="-297" y="418" width="69" height="72" as="geometry" />
        </mxCell>
        <mxCell id="TdLjCQkxOGRTl37V7jdG-27" style="edgeStyle=orthogonalEdgeStyle;rounded=0;orthogonalLoop=1;jettySize=auto;html=1;exitX=0.5;exitY=0;exitDx=0;exitDy=0;exitPerimeter=0;entryX=0.5;entryY=1;entryDx=0;entryDy=0;" edge="1" parent="1" source="TdLjCQkxOGRTl37V7jdG-4" target="TdLjCQkxOGRTl37V7jdG-19">
          <mxGeometry relative="1" as="geometry" />
        </mxCell>
        <mxCell id="TdLjCQkxOGRTl37V7jdG-4" value="" style="outlineConnect=0;dashed=0;verticalLabelPosition=bottom;verticalAlign=top;align=center;html=1;shape=mxgraph.aws3.router;fillColor=#F58536;gradientColor=none;" vertex="1" parent="1">
          <mxGeometry x="221" y="418" width="69" height="72" as="geometry" />
        </mxCell>
        <mxCell id="TdLjCQkxOGRTl37V7jdG-6" value="&lt;font style=&quot;font-size: 24px;&quot;&gt;192.168.0.1&lt;/font&gt;" style="text;html=1;align=center;verticalAlign=middle;resizable=0;points=[];autosize=1;strokeColor=none;fillColor=none;" vertex="1" parent="1">
          <mxGeometry x="-228" y="433.5" width="145" height="41" as="geometry" />
        </mxCell>
        <mxCell id="TdLjCQkxOGRTl37V7jdG-7" value="&lt;font style=&quot;font-size: 24px;&quot;&gt;10.0.0.1&lt;/font&gt;" style="text;html=1;align=center;verticalAlign=middle;resizable=0;points=[];autosize=1;strokeColor=none;fillColor=none;" vertex="1" parent="1">
          <mxGeometry x="290" y="433.5" width="105" height="41" as="geometry" />
        </mxCell>
        <mxCell id="TdLjCQkxOGRTl37V7jdG-8" value="&lt;font style=&quot;font-size: 18px;&quot;&gt;Open Ports&lt;br&gt;&lt;ul&gt;&lt;li&gt;&lt;font style=&quot;font-size: 18px;&quot;&gt;SSH: 22&lt;/font&gt;&lt;/li&gt;&lt;li&gt;&lt;font style=&quot;font-size: 18px;&quot;&gt;HTTP: 80&lt;/font&gt;&lt;/li&gt;&lt;li&gt;&lt;font style=&quot;font-size: 18px;&quot;&gt;Telnet: 23&lt;/font&gt;&lt;/li&gt;&lt;li&gt;FTP: 21&lt;/li&gt;&lt;li&gt;RDP: 3389&lt;/li&gt;&lt;/ul&gt;&lt;/font&gt;" style="text;html=1;align=left;verticalAlign=middle;resizable=0;points=[];autosize=1;strokeColor=none;fillColor=none;" vertex="1" parent="1">
          <mxGeometry x="-218" y="461" width="146" height="178" as="geometry" />
        </mxCell>
        <mxCell id="TdLjCQkxOGRTl37V7jdG-9" value="&lt;font style=&quot;font-size: 18px;&quot;&gt;Open Ports&lt;br&gt;&lt;ul&gt;&lt;li&gt;&lt;font style=&quot;font-size: 18px;&quot;&gt;SSH: 22&lt;/font&gt;&lt;/li&gt;&lt;li&gt;RDP: 3389&lt;/li&gt;&lt;/ul&gt;&lt;/font&gt;" style="text;html=1;align=left;verticalAlign=middle;resizable=0;points=[];autosize=1;strokeColor=none;fillColor=none;" vertex="1" parent="1">
          <mxGeometry x="298" y="459" width="146" height="113" as="geometry" />
        </mxCell>
        <mxCell id="TdLjCQkxOGRTl37V7jdG-15" value="" style="points=[[0.115,0.05,0],[0.335,0,0],[0.98,0.52,0],[1,0.71,0],[0.68,1,0],[0.065,0.76,0],[0,0.33,0],[0.68,0.33,0]];verticalLabelPosition=bottom;sketch=0;html=1;verticalAlign=top;aspect=fixed;align=center;pointerEvents=1;shape=mxgraph.cisco19.home_office;fillColor=#00BEF2;strokeColor=none;" vertex="1" parent="1">
          <mxGeometry x="115" y="527" width="152" height="152" as="geometry" />
        </mxCell>
        <mxCell id="TdLjCQkxOGRTl37V7jdG-19" value="" style="image;aspect=fixed;perimeter=ellipsePerimeter;html=1;align=center;shadow=0;dashed=0;spacingTop=3;image=img/lib/active_directory/internet_cloud.svg;" vertex="1" parent="1">
          <mxGeometry x="155.5" y="13" width="200" height="126" as="geometry" />
        </mxCell>
        <mxCell id="TdLjCQkxOGRTl37V7jdG-21" style="edgeStyle=orthogonalEdgeStyle;rounded=0;orthogonalLoop=1;jettySize=auto;html=1;exitX=0.5;exitY=0;exitDx=0;exitDy=0;exitPerimeter=0;entryX=0.5;entryY=0;entryDx=0;entryDy=0;entryPerimeter=0;" edge="1" parent="1" source="TdLjCQkxOGRTl37V7jdG-2" target="TdLjCQkxOGRTl37V7jdG-4">
          <mxGeometry relative="1" as="geometry" />
        </mxCell>
        <mxCell id="TdLjCQkxOGRTl37V7jdG-22" style="edgeStyle=orthogonalEdgeStyle;rounded=0;orthogonalLoop=1;jettySize=auto;html=1;exitX=0.5;exitY=0;exitDx=0;exitDy=0;exitPerimeter=0;entryX=0;entryY=0.5;entryDx=0;entryDy=0;entryPerimeter=0;" edge="1" parent="1" source="TdLjCQkxOGRTl37V7jdG-1" target="TdLjCQkxOGRTl37V7jdG-2">
          <mxGeometry relative="1" as="geometry" />
        </mxCell>
        <mxCell id="TdLjCQkxOGRTl37V7jdG-23" style="edgeStyle=orthogonalEdgeStyle;rounded=0;orthogonalLoop=1;jettySize=auto;html=1;exitX=0;exitY=0.5;exitDx=0;exitDy=0;exitPerimeter=0;entryX=0.5;entryY=0;entryDx=0;entryDy=0;entryPerimeter=0;" edge="1" parent="1" source="TdLjCQkxOGRTl37V7jdG-2" target="TdLjCQkxOGRTl37V7jdG-1">
          <mxGeometry relative="1" as="geometry" />
        </mxCell>
        <mxCell id="TdLjCQkxOGRTl37V7jdG-24" style="edgeStyle=orthogonalEdgeStyle;rounded=0;orthogonalLoop=1;jettySize=auto;html=1;exitX=0.335;exitY=0;exitDx=0;exitDy=0;exitPerimeter=0;entryX=0;entryY=0.5;entryDx=0;entryDy=0;entryPerimeter=0;" edge="1" parent="1" source="TdLjCQkxOGRTl37V7jdG-15" target="TdLjCQkxOGRTl37V7jdG-4">
          <mxGeometry relative="1" as="geometry" />
        </mxCell>
        <mxCell id="TdLjCQkxOGRTl37V7jdG-25" style="edgeStyle=orthogonalEdgeStyle;rounded=0;orthogonalLoop=1;jettySize=auto;html=1;exitX=0;exitY=0.5;exitDx=0;exitDy=0;exitPerimeter=0;entryX=0.335;entryY=0;entryDx=0;entryDy=0;entryPerimeter=0;" edge="1" parent="1" source="TdLjCQkxOGRTl37V7jdG-4" target="TdLjCQkxOGRTl37V7jdG-15">
          <mxGeometry relative="1" as="geometry" />
        </mxCell>
        <mxCell id="TdLjCQkxOGRTl37V7jdG-26" style="edgeStyle=orthogonalEdgeStyle;rounded=0;orthogonalLoop=1;jettySize=auto;html=1;exitX=0.5;exitY=0;exitDx=0;exitDy=0;exitPerimeter=0;entryX=0.5;entryY=0;entryDx=0;entryDy=0;entryPerimeter=0;" edge="1" parent="1" source="TdLjCQkxOGRTl37V7jdG-4" target="TdLjCQkxOGRTl37V7jdG-2">
          <mxGeometry relative="1" as="geometry" />
        </mxCell>
        <mxCell id="TdLjCQkxOGRTl37V7jdG-29" value="&lt;font style=&quot;font-size: 18px;&quot;&gt;Vuln Machine&lt;/font&gt;" style="text;html=1;align=center;verticalAlign=middle;resizable=0;points=[];autosize=1;strokeColor=none;fillColor=none;" vertex="1" parent="1">
          <mxGeometry x="-418" y="802" width="126" height="34" as="geometry" />
        </mxCell>
        <mxCell id="TdLjCQkxOGRTl37V7jdG-30" value="&lt;font style=&quot;font-size: 18px;&quot;&gt;Home Devices&lt;/font&gt;" style="text;html=1;align=center;verticalAlign=middle;resizable=0;points=[];autosize=1;strokeColor=none;fillColor=none;" vertex="1" parent="1">
          <mxGeometry x="126" y="679" width="135" height="34" as="geometry" />
        </mxCell>
        <mxCell id="TdLjCQkxOGRTl37V7jdG-31" value="" style="image;html=1;image=img/lib/clip_art/networking/Firewall_02_128x128.png" vertex="1" parent="1">
          <mxGeometry x="-392" y="639" width="80" height="80" as="geometry" />
        </mxCell>
        <mxCell id="TdLjCQkxOGRTl37V7jdG-32" value="" style="shape=mxgraph.mockup.markup.redX;fillColor=#ff0000;html=1;shadow=0;whiteSpace=wrap;strokeColor=none;" vertex="1" parent="1">
          <mxGeometry x="-394" y="637" width="84" height="78" as="geometry" />
        </mxCell>
        <mxCell id="TdLjCQkxOGRTl37V7jdG-33" value="&lt;span style=&quot;font-size: 18px;&quot;&gt;Notes:&lt;br&gt;Windows Defender Disabled&lt;/span&gt;&lt;div&gt;&lt;span style=&quot;font-size: 18px;&quot;&gt;Windows Firewall Disabled&lt;/span&gt;&lt;/div&gt;" style="text;html=1;align=center;verticalAlign=middle;resizable=0;points=[];autosize=1;strokeColor=none;fillColor=none;" vertex="1" parent="1">
          <mxGeometry x="-477.5" y="827" width="245" height="77" as="geometry" />
        </mxCell>
        <mxCell id="TdLjCQkxOGRTl37V7jdG-34" value="Text" style="text;html=1;align=center;verticalAlign=middle;whiteSpace=wrap;rounded=0;" vertex="1" parent="1">
          <mxGeometry x="318" y="613" width="60" height="30" as="geometry" />
        </mxCell>
        <mxCell id="TdLjCQkxOGRTl37V7jdG-36" value="&lt;font style=&quot;font-size: 24px;&quot;&gt;Kinda sucks but I&#39;ll find a way to add photos to it&amp;nbsp;&lt;/font&gt;" style="text;html=1;align=center;verticalAlign=middle;whiteSpace=wrap;rounded=0;" vertex="1" parent="1">
          <mxGeometry x="38" y="780" width="293" height="30" as="geometry" />
        </mxCell>
      </root>
    </mxGraphModel>
  </diagram>
</mxfile>
